<mxfile host="app.diagrams.net" modified="2023-08-26T11:23:12.768Z" agent="Mozilla/5.0 (Windows NT 10.0; Win64; x64) AppleWebKit/537.36 (KHTML, like Gecko) Chrome/116.0.0.0 Safari/537.36 Edg/116.0.1938.54" version="21.6.9" etag="yn2Ejq3dCFeHbSdzZIEe" type="github">
  <diagram name="PÃ¡gina-1" id="lcBGxA9pJPII8KYHjoYj">
    <mxGraphModel>
      <root>
        <mxCell id="0" />
        <mxCell id="1" parent="0" />
      </root>
    </mxGraphModel>
  </diagram>
</mxfile>
